<svg version="1.1" xmlns="http://www.w3.org/2000/svg" width="400px" height="200px" style="border: dashed 2px #aaa"><path fill="#000000" d="M2.3828125,132.578125q0-1.3671875,0.9375-1.73828125t2.03125-0.37109375q1.9140625,0,3.2421875,1.71875t2.51953125,3.76953125t2.36328125,3.76953125t2.7734375,1.71875q1.2109375,0,2.20703125-0.60546875t1.71875-1.5234375t1.11328125-2.0703125t0.390625-2.28515625q0-2.96875-1.19140625-6.1328125t-3.046875-6.5234375t-3.92578125-6.875t-3.90625-7.1484375t-3.046875-7.40234375t-1.2109375-7.59765625q0-5.7421875,3.4375-8.90625t9.0625-3.1640625q1.9140625,0,3.8671875,0.546875t3.59375,1.640625t2.67578125,2.6953125t1.03515625,3.75q0,0.703125-1.03515625,0.91796875t-1.50390625,0.21484375q-0.703125,0-1.5234375-0.17578125t-1.0546875-0.95703125t-0.6640625-1.796875t-1.07421875-1.89453125t-1.5234375-1.5234375t-1.93359375-0.64453125q-1.7578125,0-2.98828125,0.72265625t-1.9921875,1.93359375t-1.1328125,2.71484375t-0.37109375,3.10546875q0,3.75,1.2890625,7.55859375t3.203125,7.578125t4.16015625,7.44140625t4.16015625,7.1484375t3.203125,6.796875t1.2890625,6.2890625q0,2.65625-1.25,4.4921875t-3.1640625,2.98828125t-4.23828125,1.6796875t-4.55078125,0.52734375q-2.3828125,0-4.8828125-0.95703125t-4.4921875-2.63671875t-3.28125-3.92578125t-1.2890625-4.86328125z M37.526171875,129.6875l0-3.671875q0-1.9921875,0.09765625-5.64453125t0.25390625-8.0078125t0.4296875-9.08203125t0.625-8.92578125t0.83984375-7.51953125t1.11328125-4.921875q0.390625-0.8984375,1.2890625-1.1328125t1.7578125-0.234375q1.3671875,0,2.40234375,0.60546875t1.03515625,2.20703125l-0.703125,0.78125q-1.3671875,9.0234375-1.7578125,18.125t-0.546875,18.203125q0.9765625-1.5234375,2.20703125-2.98828125t2.734375-2.59765625t3.2421875-1.81640625t3.80859375-0.68359375q2.65625,0,4.39453125,1.6015625t2.87109375,4.16015625t1.6796875,5.72265625t0.83984375,6.328125t0.41015625,5.99609375t0.3515625,4.70703125q-0.7421875,1.015625-2.1875,1.015625l-0.1171875,0q-0.625,0-1.3671875-0.15625t-0.9765625-0.78125l0.078125,0.078125q-0.546875-1.2109375-0.7421875-3.49609375t-0.3125-5.0390625t-0.41015625-5.64453125t-0.87890625-5.234375t-1.71875-3.8671875t-3.046875-1.6015625l-0.234375,0q-2.3046875,0-3.8671875,1.40625q-1.640625,1.484375-2.65625,3.90625t-1.5625,5.390625t-0.83984375,5.72265625t-0.44921875,5t-0.390625,3.30078125q-0.234375,0.8984375-1.38671875,1.19140625t-1.97265625,0.29296875q-1.9140625,0-3.125-1.09375q-0.8984375-2.1484375-1.0546875-5.3515625t-0.15625-6.25z M74.89609375,127.03125q0-2.734375,0.60546875-6.4453125t2.05078125-7.03125t3.80859375-5.64453125t5.95703125-2.32421875q3.359375,0,5.0390625,1.93359375t1.6796875,5.21484375q0,2.1484375-0.80078125,4.70703125t-2.28515625,4.84375t-3.515625,3.80859375t-4.53125,1.5234375l-1.015625-0.078125q0,1.0546875,0.3125,2.83203125t0.91796875,3.53515625t1.5625,3.0859375t2.32421875,1.328125q1.9921875,0,3.828125-1.6015625t3.4765625-3.5546875t3.046875-3.5546875t2.578125-1.6015625q0.625,0,1.2890625,0.1953125t0.7421875,1.09375q0,0.546875-0.29296875,0.8984375t-0.52734375,0.78125q-1.2109375,2.0703125-2.63671875,3.9453125t-3.22265625,3.3984375t-3.92578125,2.40234375t-4.70703125,0.87890625q-3.359375,0-5.5859375-1.19140625t-3.59375-3.203125t-1.97265625-4.6484375t-0.60546875-5.52734375z M81.88828125,124.0625l1.09375,0.9765625q0.78125,0.703125,1.5625,0.3125t1.40625-1.42578125t1.15234375-2.55859375t0.9375-3.125t0.60546875-3.125t0.1953125-2.5390625l0-1.328125t-0.1171875-1.40625t-0.41015625-1.11328125t-0.91796875-0.56640625q-0.1953125-0.0390625-0.3515625-0.0390625q-1.328125,0-2.265625,1.6796875q-1.015625,1.875-1.640625,4.55078125t-0.8984375,5.48828125t-0.3515625,4.21875z M107.539453125,132.578125q0-1.3671875,0.9375-1.73828125t2.03125-0.37109375q1.9140625,0,3.2421875,1.71875t2.51953125,3.76953125t2.36328125,3.76953125t2.7734375,1.71875q1.2109375,0,2.20703125-0.60546875t1.71875-1.5234375t1.11328125-2.0703125t0.390625-2.28515625q0-2.96875-1.19140625-6.1328125t-3.046875-6.5234375t-3.92578125-6.875t-3.90625-7.1484375t-3.046875-7.40234375t-1.2109375-7.59765625q0-5.7421875,3.4375-8.90625t9.0625-3.1640625q1.9140625,0,3.8671875,0.546875t3.59375,1.640625t2.67578125,2.6953125t1.03515625,3.75q0,0.703125-1.03515625,0.91796875t-1.50390625,0.21484375q-0.703125,0-1.5234375-0.17578125t-1.0546875-0.95703125t-0.6640625-1.796875t-1.07421875-1.89453125t-1.5234375-1.5234375t-1.93359375-0.64453125q-1.7578125,0-2.98828125,0.72265625t-1.9921875,1.93359375t-1.1328125,2.71484375t-0.37109375,3.10546875q0,3.75,1.2890625,7.55859375t3.203125,7.578125t4.16015625,7.44140625t4.16015625,7.1484375t3.203125,6.796875t1.2890625,6.2890625q0,2.65625-1.25,4.4921875t-3.1640625,2.98828125t-4.23828125,1.6796875t-4.55078125,0.52734375q-2.3828125,0-4.8828125-0.95703125t-4.4921875-2.63671875t-3.28125-3.92578125t-1.2890625-4.86328125z M142.6828125,129.6875l0-3.671875q0-1.9921875,0.09765625-5.64453125t0.25390625-8.0078125t0.4296875-9.08203125t0.625-8.92578125t0.83984375-7.51953125t1.11328125-4.921875q0.390625-0.8984375,1.2890625-1.1328125t1.7578125-0.234375q1.3671875,0,2.40234375,0.60546875t1.03515625,2.20703125l-0.703125,0.78125q-1.3671875,9.0234375-1.7578125,18.125t-0.546875,18.203125q0.9765625-1.5234375,2.20703125-2.98828125t2.734375-2.59765625t3.2421875-1.81640625t3.80859375-0.68359375q2.65625,0,4.39453125,1.6015625t2.87109375,4.16015625t1.6796875,5.72265625t0.83984375,6.328125t0.41015625,5.99609375t0.3515625,4.70703125q-0.7421875,1.015625-2.1875,1.015625l-0.1171875,0q-0.625,0-1.3671875-0.15625t-0.9765625-0.78125l0.078125,0.078125q-0.546875-1.2109375-0.7421875-3.49609375t-0.3125-5.0390625t-0.41015625-5.64453125t-0.87890625-5.234375t-1.71875-3.8671875t-3.046875-1.6015625l-0.234375,0q-2.3046875,0-3.8671875,1.40625q-1.640625,1.484375-2.65625,3.90625t-1.5625,5.390625t-0.83984375,5.72265625t-0.44921875,5t-0.390625,3.30078125q-0.234375,0.8984375-1.38671875,1.19140625t-1.97265625,0.29296875q-1.9140625,0-3.125-1.09375q-0.8984375-2.1484375-1.0546875-5.3515625t-0.15625-6.25z M179.271484375,126.171875q0-2.2265625,0.56640625-4.58984375t1.796875-4.2578125t3.10546875-3.0859375t4.53125-1.19140625q1.9921875,0,4.19921875,0.68359375t4.04296875,1.953125t2.98828125,3.10546875t1.15234375,4.1015625q0,2.734375-0.99609375,5.1953125t-2.79296875,4.39453125t-4.19921875,3.046875t-5.21484375,1.11328125q-2.3046875,0-4.0234375-0.83984375t-2.87109375-2.24609375t-1.71875-3.3203125t-0.56640625-4.0625z M185.013671875,126.09375q0,0.703125,0.21484375,2.0703125t0.64453125,2.67578125t1.11328125,2.265625t1.66015625,0.87890625q2.0703125-0.234375,3.41796875-1.34765625t2.1875-2.71484375t1.171875-3.4765625t0.33203125-3.5546875q0-2.1484375-0.83984375-3.59375t-2.75390625-2.34375q0,0.078125,0.078125,0.078125t0.078125-0.078125l-0.9765625-0.234375q-0.390625-0.15625-0.95703125-0.3515625t-1.11328125-0.859375q-1.5234375,0.546875-2.36328125,1.40625t-1.26953125,2.08984375t-0.52734375,2.94921875t-0.09765625,4.140625z M208.86796875,111.2890625q0-1.8359375,0.72265625-2.71484375t2.63671875-0.87890625q1.1328125,0,2.12890625,0.46875t0.99609375,1.9921875q0.15625,2.2265625,0.15625,4.66796875t0.4296875,4.62890625q0.9765625-1.6015625,2.20703125-3.203125t2.71484375-2.8515625t3.2421875-2.01171875t3.828125-0.76171875q2.8125,0,4.765625,1.171875t3.22265625,3.046875t1.8359375,4.23828125t0.56640625,4.74609375q0,3.671875-1.11328125,5.99609375t-2.94921875,3.65234375t-4.16015625,1.796875t-4.66796875,0.46875q-2.0703125,0-3.8671875-0.80078125t-2.5-3.02734375q0-0.625,0.91796875-0.78125t1.30859375-0.15625q1.2890625,0,1.9140625,0.703125q0.46875,0.546875,1.03515625,1.11328125t1.19140625,0.56640625q1.2109375,0,2.5390625-0.68359375t2.44140625-1.796875t1.875-2.63671875t0.76171875-3.125q0-1.3671875-0.234375-3.3984375t-0.80078125-3.90625t-1.5625-3.2421875t-2.51953125-1.3671875q-2.3046875,0-4.16015625,2.109375t-3.0859375,5.078125t-1.9140625,6.171875t-0.68359375,5.3515625t0.2734375,5.4296875t0.56640625,6.81640625t0.56640625,6.81640625t0.2734375,5.4296875q0,0.546875-0.44921875,0.87890625t-1.07421875,0.52734375t-1.26953125,0.234375t-0.95703125,0.0390625q-1.0546875,0-2.20703125-0.234375t-1.58203125-1.4453125q-0.546875-1.9140625-1.015625-5.44921875t-0.83984375-7.8125t-0.64453125-8.984375t-0.46875-9.08203125t-0.29296875-8.0078125t-0.09765625-5.78125z M246.316015625,90.46875q0-1.8359375,0.09765625-3.6328125t0.33203125-3.5546875q0.15625-0.8984375,1.38671875-1.2890625t2.05078125-0.390625l0.9375,0.078125q1.1328125,0.15625,2.28515625-0.15625t2.28515625-0.3125q2.65625,0,5.9375,0.5859375t6.15234375,1.9921875t4.82421875,3.69140625t1.953125,5.64453125t-2.03125,6.26953125t-5.1171875,5.1171875t-6.640625,3.45703125t-6.5234375,1.25q0.3125,7.5390625,0.87890625,14.9609375t1.93359375,14.84375l0.078125,0.5078125q0,0.546875-0.48828125,0.8984375t-1.15234375,0.56640625t-1.34765625,0.29296875t-1.11328125,0.078125q-0.9765625,0-2.36328125-0.37109375t-1.69921875-1.46484375q-0.8984375-3.4375-1.40625-7.55859375t-0.7421875-8.61328125t-0.33203125-9.04296875t-0.09765625-8.88671875l0-8.7890625q0-1.4453125-0.0390625-3.0078125t-0.0390625-3.1640625z M253.698828125,84.140625q0,5.3515625,0.1171875,10.68359375t0.2734375,10.68359375q2.3046875-0.46875,4.70703125-1.66015625t4.3359375-2.83203125t3.125-3.73046875t1.19140625-4.39453125q0-2.0703125-1.03515625-3.7109375t-2.67578125-2.8125q-1.6015625-1.1328125-3.6328125-1.7578125q-1.796875-0.546875-3.515625-0.546875l-0.4296875,0z M282.553125,139.296875q0-1.1328125,0.09765625-2.3828125t0.17578125-2.34375l0.234375-5.859375q0.390625-7.03125,0.95703125-13.828125t0.95703125-13.75q0.234375-3.828125,0.3515625-7.51953125t0.3515625-7.51953125q-0.15625-0.3125-0.15625-0.4296875q0-0.546875,0.41015625-0.859375t0.95703125-0.52734375t1.15234375-0.29296875t0.91796875-0.078125l0.8984375,0q1.2109375,0.15625,1.7578125,0.76171875t0.703125,1.4453125t0.078125,1.796875t-0.078125,1.77734375q0,5.6640625-0.2734375,11.54296875t-0.625,11.796875t-0.64453125,11.8359375t-0.29296875,11.69921875l0,2.734375q0,1.8359375-1.03515625,2.421875t-2.87109375,0.5859375q-1.6015625,0-2.8125-0.703125t-1.2109375-2.3046875z M300.469921875,125.4296875q0-2.65625,0.72265625-5.1171875t2.16796875-4.39453125t3.61328125-3.0859375t5.01953125-1.15234375q1.7578125,0,3.88671875,0.52734375t4.00390625,1.5625t3.125,2.63671875t1.25,3.671875q0,0.9765625-0.33203125,1.484375t-1.34765625,0.5078125l-0.4296875-0.078125q1.1328125,3.046875,1.953125,6.25t1.6015625,6.40625q0.3125,0.625,0.46875,1.11328125t0.15625,0.95703125q0,0.625-0.3515625,1.03515625t-0.91796875,0.60546875t-1.171875,0.2734375t-1.07421875,0.078125q-1.6796875,0-2.51953125-0.5859375t-1.2109375-1.6015625t-0.44921875-2.28515625t-0.3125-2.55859375q-0.46875,1.5234375-1.23046875,2.96875t-1.796875,2.59765625t-2.44140625,1.8359375t-3.1640625,0.68359375q-2.578125,0-4.3359375-1.484375t-2.83203125-3.65234375t-1.5625-4.62890625t-0.48828125-4.5703125z M306.016796875,124.8828125q0,1.4453125,0.1953125,3.046875t0.64453125,3.1640625t1.15234375,2.94921875t1.7578125,2.44140625q1.9140625-2.0703125,2.83203125-5.0390625t1.640625-5.72265625t1.640625-4.7265625t2.83203125-1.97265625q1.2109375,0,2.03125,0.4296875q-0.390625-0.9765625-1.2890625-1.89453125t-2.01171875-1.6796875t-2.3046875-1.25t-2.24609375-0.48828125q-0.3125,0-0.72265625,0.09765625t-0.64453125,0.01953125q-1.6015625,0.46875-2.63671875,1.62109375t-1.6796875,2.71484375t-0.91796875,3.203125t-0.2734375,3.0859375z M334.32421875,124.6484375q0-2.8125,0.72265625-5.64453125t2.24609375-5.078125t3.88671875-3.65234375t5.56640625-1.40625q1.3671875,0,3.0078125,0.33203125t3.02734375,1.0546875t2.34375,1.875t0.95703125,2.83203125q0,1.0546875-0.546875,1.40625t-1.4453125,0.3515625l-0.2734375-0.390625t-0.76171875-0.99609375t-1.03515625-1.2890625t-1.0546875-1.15234375q-1.6015625-1.6015625-3.0078125-1.71875l-0.3125,0q-1.171875,0-2.1875,0.703125q-1.1328125,0.859375-2.01171875,2.421875t-1.46484375,3.3203125t-0.91796875,3.5546875t-0.33203125,2.96875q0,1.6015625,0.37109375,3.65234375t1.25,3.88671875t2.2265625,3.0859375t3.45703125,1.25q1.9140625,0,3.4765625-0.9375t2.98828125-2.08984375t2.79296875-2.0703125t2.8125-0.91796875q0.625,0,1.26953125,0.15625t0.64453125,0.8203125l0,0.234375q-0.703125,1.8359375-2.3828125,3.2421875t-3.76953125,2.44140625t-4.3359375,1.54296875t-4.00390625,0.5078125q-3.28125,0-5.76171875-1.07421875t-4.12109375-2.94921875t-2.48046875-4.51171875t-0.83984375-5.76171875z M368.412890625,127.03125q0-2.734375,0.60546875-6.4453125t2.05078125-7.03125t3.80859375-5.64453125t5.95703125-2.32421875q3.359375,0,5.0390625,1.93359375t1.6796875,5.21484375q0,2.1484375-0.80078125,4.70703125t-2.28515625,4.84375t-3.515625,3.80859375t-4.53125,1.5234375l-1.015625-0.078125q0,1.0546875,0.3125,2.83203125t0.91796875,3.53515625t1.5625,3.0859375t2.32421875,1.328125q1.9921875,0,3.828125-1.6015625t3.4765625-3.5546875t3.046875-3.5546875t2.578125-1.6015625q0.625,0,1.2890625,0.1953125t0.7421875,1.09375q0,0.546875-0.29296875,0.8984375t-0.52734375,0.78125q-1.2109375,2.0703125-2.63671875,3.9453125t-3.22265625,3.3984375t-3.92578125,2.40234375t-4.70703125,0.87890625q-3.359375,0-5.5859375-1.19140625t-3.59375-3.203125t-1.97265625-4.6484375t-0.60546875-5.52734375z M375.405078125,124.0625l1.09375,0.9765625q0.78125,0.703125,1.5625,0.3125t1.40625-1.42578125t1.15234375-2.55859375t0.9375-3.125t0.60546875-3.125t0.1953125-2.5390625l0-1.328125t-0.1171875-1.40625t-0.41015625-1.11328125t-0.91796875-0.56640625q-0.1953125-0.0390625-0.3515625-0.0390625q-1.328125,0-2.265625,1.6796875q-1.015625,1.875-1.640625,4.55078125t-0.8984375,5.48828125t-0.3515625,4.21875z"/><path fill="#" d=""/></svg>
